<svg xmlns="http://www.w3.org/2000/svg" xmlns:xlink="http://www.w3.org/1999/xlink" width="2000" zoomAndPan="magnify" viewBox="0 0 1500 599.999999" height="800" preserveAspectRatio="xMidYMid meet" version="1.0"><defs><g/><clipPath id="36a948ab2b"><path d="M 82 1.269531 L 538 1.269531 L 538 519 L 82 519 Z M 82 1.269531 " clip-rule="nonzero"/></clipPath><clipPath id="43f7c0afa9"><path d="M 0 1.441406 L 723.539062 1.441406 L 723.539062 599.769531 L 0 599.769531 Z M 0 1.441406 " clip-rule="nonzero"/></clipPath></defs><g clip-path="url(#36a948ab2b)"><path fill="#01572e" d="M 127.847656 250.992188 L 243.550781 135.292969 L 211.683594 103.421875 L 82.78125 232.324219 L 82.78125 518.277344 L 496.59375 518.277344 L 496.59375 473.210938 L 127.847656 473.210938 Z M 313.660156 1.445312 L 264.496094 50.609375 L 296.363281 82.480469 L 313.660156 65.179688 L 506.070312 257.59375 L 537.9375 225.722656 L 313.660156 1.445312 " fill-opacity="1" fill-rule="nonzero"/></g><g clip-path="url(#43f7c0afa9)"><path fill="#01572e" d="M 723.539062 599.800781 L 0 599.800781 L 0 197.644531 L 196.152344 1.445312 L 420.433594 225.722656 L 388.566406 257.59375 L 196.15625 65.183594 L 45.066406 216.308594 L 45.066406 554.734375 L 723.539062 554.734375 L 723.539062 599.800781 " fill-opacity="1" fill-rule="nonzero"/></g><g fill="#01572e" fill-opacity="1"><g transform="translate(153.095956, 428.789327)"><g><path d="M 20.671875 1.1875 C 16.804688 1.1875 13.796875 0.113281 11.640625 -2.03125 C 9.492188 -4.1875 8.421875 -7.28125 8.421875 -11.3125 L 8.421875 -80.296875 C 8.421875 -84.328125 9.492188 -87.414062 11.640625 -89.5625 C 13.796875 -91.71875 16.9375 -92.796875 21.0625 -92.796875 L 64.890625 -92.796875 C 68.046875 -92.796875 70.414062 -92.003906 72 -90.421875 C 73.582031 -88.847656 74.375 -86.566406 74.375 -83.578125 C 74.375 -80.503906 73.582031 -78.15625 72 -76.53125 C 70.414062 -74.914062 68.046875 -74.109375 64.890625 -74.109375 L 32.640625 -74.109375 L 32.640625 -55.421875 L 62 -55.421875 C 65.070312 -55.421875 67.414062 -54.628906 69.03125 -53.046875 C 70.65625 -51.460938 71.46875 -49.179688 71.46875 -46.203125 C 71.46875 -43.128906 70.65625 -40.800781 69.03125 -39.21875 C 67.414062 -37.644531 65.070312 -36.859375 62 -36.859375 L 32.640625 -36.859375 L 32.640625 -11.3125 C 32.640625 -2.976562 28.648438 1.1875 20.671875 1.1875 Z M 20.671875 1.1875 "/></g></g></g><g fill="#01572e" fill-opacity="1"><g transform="translate(231.939531, 428.789327)"><g><path d="M 20.53125 1.1875 C 16.664062 1.1875 13.679688 0.113281 11.578125 -2.03125 C 9.472656 -4.1875 8.421875 -7.195312 8.421875 -11.0625 L 8.421875 -80.546875 C 8.421875 -84.503906 9.492188 -87.535156 11.640625 -89.640625 C 13.796875 -91.742188 16.804688 -92.796875 20.671875 -92.796875 L 53.046875 -92.796875 C 63.578125 -92.796875 71.710938 -90.226562 77.453125 -85.09375 C 83.203125 -79.957031 86.078125 -72.828125 86.078125 -63.703125 C 86.078125 -57.828125 84.78125 -52.71875 82.1875 -48.375 C 79.601562 -44.03125 75.875 -40.691406 71 -38.359375 C 66.132812 -36.035156 60.148438 -34.875 53.046875 -34.875 L 54.09375 -37.25 L 60.421875 -37.25 C 64.191406 -37.25 67.523438 -36.347656 70.421875 -34.546875 C 73.316406 -32.753906 75.726562 -30.015625 77.65625 -26.328125 L 84.234375 -14.484375 C 85.640625 -11.929688 86.296875 -9.445312 86.203125 -7.03125 C 86.117188 -4.625 85.175781 -2.648438 83.375 -1.109375 C 81.582031 0.421875 78.972656 1.1875 75.546875 1.1875 C 72.128906 1.1875 69.34375 0.484375 67.1875 -0.921875 C 65.039062 -2.328125 63.132812 -4.519531 61.46875 -7.5 L 49.484375 -29.484375 C 48.429688 -31.410156 47.09375 -32.75 45.46875 -33.5 C 43.851562 -34.25 41.988281 -34.625 39.875 -34.625 L 32.640625 -34.625 L 32.640625 -11.0625 C 32.640625 -7.195312 31.628906 -4.1875 29.609375 -2.03125 C 27.597656 0.113281 24.570312 1.1875 20.53125 1.1875 Z M 32.640625 -51.734375 L 48.703125 -51.734375 C 53.347656 -51.734375 56.898438 -52.648438 59.359375 -54.484375 C 61.816406 -56.328125 63.046875 -59.179688 63.046875 -63.046875 C 63.046875 -66.734375 61.816406 -69.519531 59.359375 -71.40625 C 56.898438 -73.289062 53.347656 -74.234375 48.703125 -74.234375 L 32.640625 -74.234375 Z M 32.640625 -51.734375 "/></g></g></g><g fill="#01572e" fill-opacity="1"><g transform="translate(327.499467, 428.789327)"><g><path d="M 21.0625 0 C 16.9375 0 13.796875 -1.070312 11.640625 -3.21875 C 9.492188 -5.375 8.421875 -8.46875 8.421875 -12.5 L 8.421875 -80.296875 C 8.421875 -84.328125 9.492188 -87.414062 11.640625 -89.5625 C 13.796875 -91.71875 16.9375 -92.796875 21.0625 -92.796875 L 65.6875 -92.796875 C 68.84375 -92.796875 71.207031 -92.003906 72.78125 -90.421875 C 74.363281 -88.847656 75.15625 -86.566406 75.15625 -83.578125 C 75.15625 -80.503906 74.363281 -78.15625 72.78125 -76.53125 C 71.207031 -74.914062 68.84375 -74.109375 65.6875 -74.109375 L 31.59375 -74.109375 L 31.59375 -56.46875 L 62.78125 -56.46875 C 65.851562 -56.46875 68.203125 -55.675781 69.828125 -54.09375 C 71.453125 -52.519531 72.265625 -50.195312 72.265625 -47.125 C 72.265625 -44.050781 71.453125 -41.722656 69.828125 -40.140625 C 68.203125 -38.566406 65.851562 -37.78125 62.78125 -37.78125 L 31.59375 -37.78125 L 31.59375 -18.6875 L 65.6875 -18.6875 C 68.84375 -18.6875 71.207031 -17.875 72.78125 -16.25 C 74.363281 -14.632812 75.15625 -12.332031 75.15625 -9.34375 C 75.15625 -6.269531 74.363281 -3.941406 72.78125 -2.359375 C 71.207031 -0.785156 68.84375 0 65.6875 0 Z M 21.0625 0 "/></g></g></g><g fill="#01572e" fill-opacity="1"><g transform="translate(410.949918, 428.789327)"><g><path d="M 42.90625 1.453125 C 39.394531 1.453125 35.726562 1.207031 31.90625 0.71875 C 28.09375 0.238281 24.472656 -0.476562 21.046875 -1.4375 C 17.628906 -2.40625 14.5625 -3.550781 11.84375 -4.875 C 9.476562 -6.007812 7.8125 -7.519531 6.84375 -9.40625 C 5.875 -11.289062 5.519531 -13.285156 5.78125 -15.390625 C 6.050781 -17.503906 6.800781 -19.367188 8.03125 -20.984375 C 9.257812 -22.609375 10.878906 -23.707031 12.890625 -24.28125 C 14.910156 -24.851562 17.195312 -24.566406 19.75 -23.421875 C 23.082031 -21.847656 26.851562 -20.617188 31.0625 -19.734375 C 35.269531 -18.859375 39.21875 -18.421875 42.90625 -18.421875 C 48.695312 -18.421875 52.753906 -19.1875 55.078125 -20.71875 C 57.410156 -22.257812 58.578125 -24.171875 58.578125 -26.453125 C 58.578125 -28.472656 57.765625 -30.097656 56.140625 -31.328125 C 54.515625 -32.554688 51.640625 -33.609375 47.515625 -34.484375 L 32.109375 -37.78125 C 23.691406 -39.53125 17.421875 -42.597656 13.296875 -46.984375 C 9.171875 -51.378906 7.109375 -57.039062 7.109375 -63.96875 C 7.109375 -68.53125 8.050781 -72.675781 9.9375 -76.40625 C 11.820312 -80.132812 14.5 -83.316406 17.96875 -85.953125 C 21.4375 -88.585938 25.5625 -90.628906 30.34375 -92.078125 C 35.125 -93.523438 40.453125 -94.25 46.328125 -94.25 C 50.890625 -94.25 55.519531 -93.742188 60.21875 -92.734375 C 64.914062 -91.722656 68.972656 -90.207031 72.390625 -88.1875 C 74.410156 -87.132812 75.859375 -85.6875 76.734375 -83.84375 C 77.609375 -82 77.957031 -80.085938 77.78125 -78.109375 C 77.613281 -76.140625 76.9375 -74.410156 75.75 -72.921875 C 74.5625 -71.429688 72.976562 -70.441406 71 -69.953125 C 69.03125 -69.472656 66.6875 -69.804688 63.96875 -70.953125 C 61.425781 -72.085938 58.550781 -72.941406 55.34375 -73.515625 C 52.144531 -74.085938 49.050781 -74.375 46.0625 -74.375 C 42.820312 -74.375 40.0625 -74 37.78125 -73.25 C 35.5 -72.5 33.765625 -71.421875 32.578125 -70.015625 C 31.390625 -68.617188 30.796875 -67 30.796875 -65.15625 C 30.796875 -63.3125 31.5625 -61.753906 33.09375 -60.484375 C 34.632812 -59.210938 37.46875 -58.132812 41.59375 -57.25 L 56.859375 -53.96875 C 65.367188 -52.125 71.726562 -49.09375 75.9375 -44.875 C 80.15625 -40.664062 82.265625 -35.1875 82.265625 -28.4375 C 82.265625 -23.875 81.34375 -19.75 79.5 -16.0625 C 77.65625 -12.375 75.019531 -9.234375 71.59375 -6.640625 C 68.175781 -4.054688 64.050781 -2.0625 59.21875 -0.65625 C 54.394531 0.75 48.957031 1.453125 42.90625 1.453125 Z M 42.90625 1.453125 "/></g></g></g><g fill="#01572e" fill-opacity="1"><g transform="translate(499.270471, 428.789327)"><g><path d="M 20.53125 1.1875 C 16.664062 1.1875 13.679688 0.113281 11.578125 -2.03125 C 9.472656 -4.1875 8.421875 -7.238281 8.421875 -11.1875 L 8.421875 -81.609375 C 8.421875 -85.640625 9.472656 -88.707031 11.578125 -90.8125 C 13.679688 -92.925781 16.664062 -93.984375 20.53125 -93.984375 C 24.476562 -93.984375 27.484375 -92.925781 29.546875 -90.8125 C 31.609375 -88.707031 32.640625 -85.640625 32.640625 -81.609375 L 32.640625 -57 L 70.953125 -57 L 70.953125 -81.609375 C 70.953125 -85.640625 71.976562 -88.707031 74.03125 -90.8125 C 76.09375 -92.925781 79.101562 -93.984375 83.0625 -93.984375 C 86.914062 -93.984375 89.875 -92.925781 91.9375 -90.8125 C 94 -88.707031 95.03125 -85.640625 95.03125 -81.609375 L 95.03125 -11.1875 C 95.03125 -7.238281 94 -4.1875 91.9375 -2.03125 C 89.875 0.113281 86.914062 1.1875 83.0625 1.1875 C 79.101562 1.1875 76.09375 0.113281 74.03125 -2.03125 C 71.976562 -4.1875 70.953125 -7.238281 70.953125 -11.1875 L 70.953125 -37.125 L 32.640625 -37.125 L 32.640625 -11.1875 C 32.640625 -7.238281 31.628906 -4.1875 29.609375 -2.03125 C 27.597656 0.113281 24.570312 1.1875 20.53125 1.1875 Z M 20.53125 1.1875 "/></g></g></g><g fill="#01572e" fill-opacity="1"><g transform="translate(605.360402, 428.789327)"><g/></g></g><g fill="#01572e" fill-opacity="1"><g transform="translate(645.637881, 428.789327)"><g><path d="M 21.0625 0 C 16.9375 0 13.796875 -1.070312 11.640625 -3.21875 C 9.492188 -5.375 8.421875 -8.46875 8.421875 -12.5 L 8.421875 -80.296875 C 8.421875 -84.328125 9.492188 -87.414062 11.640625 -89.5625 C 13.796875 -91.71875 16.9375 -92.796875 21.0625 -92.796875 L 65.6875 -92.796875 C 68.84375 -92.796875 71.207031 -92.003906 72.78125 -90.421875 C 74.363281 -88.847656 75.15625 -86.566406 75.15625 -83.578125 C 75.15625 -80.503906 74.363281 -78.15625 72.78125 -76.53125 C 71.207031 -74.914062 68.84375 -74.109375 65.6875 -74.109375 L 31.59375 -74.109375 L 31.59375 -56.46875 L 62.78125 -56.46875 C 65.851562 -56.46875 68.203125 -55.675781 69.828125 -54.09375 C 71.453125 -52.519531 72.265625 -50.195312 72.265625 -47.125 C 72.265625 -44.050781 71.453125 -41.722656 69.828125 -40.140625 C 68.203125 -38.566406 65.851562 -37.78125 62.78125 -37.78125 L 31.59375 -37.78125 L 31.59375 -18.6875 L 65.6875 -18.6875 C 68.84375 -18.6875 71.207031 -17.875 72.78125 -16.25 C 74.363281 -14.632812 75.15625 -12.332031 75.15625 -9.34375 C 75.15625 -6.269531 74.363281 -3.941406 72.78125 -2.359375 C 71.207031 -0.785156 68.84375 0 65.6875 0 Z M 21.0625 0 "/></g></g></g><g fill="#01572e" fill-opacity="1"><g transform="translate(729.088332, 428.789327)"><g><path d="M 21.0625 0 C 16.9375 0 13.796875 -1.070312 11.640625 -3.21875 C 9.492188 -5.375 8.421875 -8.46875 8.421875 -12.5 L 8.421875 -80.296875 C 8.421875 -84.328125 9.492188 -87.414062 11.640625 -89.5625 C 13.796875 -91.71875 16.9375 -92.796875 21.0625 -92.796875 L 46.859375 -92.796875 C 63.003906 -92.796875 75.484375 -88.757812 84.296875 -80.6875 C 93.117188 -72.613281 97.53125 -61.207031 97.53125 -46.46875 C 97.53125 -39.09375 96.390625 -32.53125 94.109375 -26.78125 C 91.828125 -21.039062 88.535156 -16.171875 84.234375 -12.171875 C 79.941406 -8.179688 74.65625 -5.15625 68.375 -3.09375 C 62.101562 -1.03125 54.929688 0 46.859375 0 Z M 32.640625 -19.609375 L 45.28125 -19.609375 C 49.925781 -19.609375 53.9375 -20.175781 57.3125 -21.3125 C 60.695312 -22.457031 63.507812 -24.125 65.75 -26.3125 C 67.988281 -28.507812 69.65625 -31.273438 70.75 -34.609375 C 71.84375 -37.953125 72.390625 -41.90625 72.390625 -46.46875 C 72.390625 -55.59375 70.148438 -62.328125 65.671875 -66.671875 C 61.203125 -71.015625 54.40625 -73.1875 45.28125 -73.1875 L 32.640625 -73.1875 Z M 32.640625 -19.609375 "/></g></g></g><g fill="#01572e" fill-opacity="1"><g transform="translate(835.178263, 428.789327)"><g><path d="M 55.8125 1.453125 C 45.1875 1.453125 36.164062 -0.519531 28.75 -4.46875 C 21.34375 -8.414062 15.707031 -13.941406 11.84375 -21.046875 C 7.988281 -28.160156 6.0625 -36.457031 6.0625 -45.9375 C 6.0625 -53.3125 7.222656 -59.957031 9.546875 -65.875 C 11.867188 -71.800781 15.222656 -76.890625 19.609375 -81.140625 C 23.992188 -85.398438 29.367188 -88.648438 35.734375 -90.890625 C 42.097656 -93.128906 49.316406 -94.25 57.390625 -94.25 C 61.773438 -94.25 66.25 -93.832031 70.8125 -93 C 75.375 -92.164062 79.847656 -90.609375 84.234375 -88.328125 C 86.515625 -87.265625 88.070312 -85.789062 88.90625 -83.90625 C 89.738281 -82.019531 90 -80.046875 89.6875 -77.984375 C 89.382812 -75.921875 88.640625 -74.035156 87.453125 -72.328125 C 86.273438 -70.617188 84.675781 -69.476562 82.65625 -68.90625 C 80.644531 -68.332031 78.363281 -68.617188 75.8125 -69.765625 C 73.1875 -70.992188 70.335938 -71.9375 67.265625 -72.59375 C 64.191406 -73.25 60.941406 -73.578125 57.515625 -73.578125 C 51.640625 -73.578125 46.75 -72.523438 42.84375 -70.421875 C 38.9375 -68.316406 36.015625 -65.203125 34.078125 -61.078125 C 32.148438 -56.953125 31.1875 -51.90625 31.1875 -45.9375 C 31.1875 -36.988281 33.378906 -30.234375 37.765625 -25.671875 C 42.160156 -21.109375 48.65625 -18.828125 57.25 -18.828125 C 59.882812 -18.828125 62.757812 -19.085938 65.875 -19.609375 C 68.988281 -20.140625 72.128906 -20.882812 75.296875 -21.84375 L 70.8125 -12.765625 L 70.8125 -35.28125 L 61.59375 -35.28125 C 58.613281 -35.28125 56.3125 -36.023438 54.6875 -37.515625 C 53.0625 -39.003906 52.25 -41.109375 52.25 -43.828125 C 52.25 -46.546875 53.0625 -48.628906 54.6875 -50.078125 C 56.3125 -51.523438 58.613281 -52.25 61.59375 -52.25 L 81.078125 -52.25 C 84.148438 -52.25 86.5 -51.4375 88.125 -49.8125 C 89.75 -48.195312 90.5625 -45.851562 90.5625 -42.78125 L 90.5625 -13.6875 C 90.5625 -11.050781 90.007812 -8.8125 88.90625 -6.96875 C 87.8125 -5.132812 86.082031 -3.820312 83.71875 -3.03125 C 79.59375 -1.625 75.113281 -0.523438 70.28125 0.265625 C 65.457031 1.054688 60.632812 1.453125 55.8125 1.453125 Z M 55.8125 1.453125 "/></g></g></g><g fill="#01572e" fill-opacity="1"><g transform="translate(936.134832, 428.789327)"><g><path d="M 21.0625 0 C 16.9375 0 13.796875 -1.070312 11.640625 -3.21875 C 9.492188 -5.375 8.421875 -8.46875 8.421875 -12.5 L 8.421875 -80.296875 C 8.421875 -84.328125 9.492188 -87.414062 11.640625 -89.5625 C 13.796875 -91.71875 16.9375 -92.796875 21.0625 -92.796875 L 65.6875 -92.796875 C 68.84375 -92.796875 71.207031 -92.003906 72.78125 -90.421875 C 74.363281 -88.847656 75.15625 -86.566406 75.15625 -83.578125 C 75.15625 -80.503906 74.363281 -78.15625 72.78125 -76.53125 C 71.207031 -74.914062 68.84375 -74.109375 65.6875 -74.109375 L 31.59375 -74.109375 L 31.59375 -56.46875 L 62.78125 -56.46875 C 65.851562 -56.46875 68.203125 -55.675781 69.828125 -54.09375 C 71.453125 -52.519531 72.265625 -50.195312 72.265625 -47.125 C 72.265625 -44.050781 71.453125 -41.722656 69.828125 -40.140625 C 68.203125 -38.566406 65.851562 -37.78125 62.78125 -37.78125 L 31.59375 -37.78125 L 31.59375 -18.6875 L 65.6875 -18.6875 C 68.84375 -18.6875 71.207031 -17.875 72.78125 -16.25 C 74.363281 -14.632812 75.15625 -12.332031 75.15625 -9.34375 C 75.15625 -6.269531 74.363281 -3.941406 72.78125 -2.359375 C 71.207031 -0.785156 68.84375 0 65.6875 0 Z M 21.0625 0 "/></g></g></g><g fill="#01572e" fill-opacity="1"><g transform="translate(1019.585238, 428.789327)"><g><path d="M 42.90625 1.453125 C 39.394531 1.453125 35.726562 1.207031 31.90625 0.71875 C 28.09375 0.238281 24.472656 -0.476562 21.046875 -1.4375 C 17.628906 -2.40625 14.5625 -3.550781 11.84375 -4.875 C 9.476562 -6.007812 7.8125 -7.519531 6.84375 -9.40625 C 5.875 -11.289062 5.519531 -13.285156 5.78125 -15.390625 C 6.050781 -17.503906 6.800781 -19.367188 8.03125 -20.984375 C 9.257812 -22.609375 10.878906 -23.707031 12.890625 -24.28125 C 14.910156 -24.851562 17.195312 -24.566406 19.75 -23.421875 C 23.082031 -21.847656 26.851562 -20.617188 31.0625 -19.734375 C 35.269531 -18.859375 39.21875 -18.421875 42.90625 -18.421875 C 48.695312 -18.421875 52.753906 -19.1875 55.078125 -20.71875 C 57.410156 -22.257812 58.578125 -24.171875 58.578125 -26.453125 C 58.578125 -28.472656 57.765625 -30.097656 56.140625 -31.328125 C 54.515625 -32.554688 51.640625 -33.609375 47.515625 -34.484375 L 32.109375 -37.78125 C 23.691406 -39.53125 17.421875 -42.597656 13.296875 -46.984375 C 9.171875 -51.378906 7.109375 -57.039062 7.109375 -63.96875 C 7.109375 -68.53125 8.050781 -72.675781 9.9375 -76.40625 C 11.820312 -80.132812 14.5 -83.316406 17.96875 -85.953125 C 21.4375 -88.585938 25.5625 -90.628906 30.34375 -92.078125 C 35.125 -93.523438 40.453125 -94.25 46.328125 -94.25 C 50.890625 -94.25 55.519531 -93.742188 60.21875 -92.734375 C 64.914062 -91.722656 68.972656 -90.207031 72.390625 -88.1875 C 74.410156 -87.132812 75.859375 -85.6875 76.734375 -83.84375 C 77.609375 -82 77.957031 -80.085938 77.78125 -78.109375 C 77.613281 -76.140625 76.9375 -74.410156 75.75 -72.921875 C 74.5625 -71.429688 72.976562 -70.441406 71 -69.953125 C 69.03125 -69.472656 66.6875 -69.804688 63.96875 -70.953125 C 61.425781 -72.085938 58.550781 -72.941406 55.34375 -73.515625 C 52.144531 -74.085938 49.050781 -74.375 46.0625 -74.375 C 42.820312 -74.375 40.0625 -74 37.78125 -73.25 C 35.5 -72.5 33.765625 -71.421875 32.578125 -70.015625 C 31.390625 -68.617188 30.796875 -67 30.796875 -65.15625 C 30.796875 -63.3125 31.5625 -61.753906 33.09375 -60.484375 C 34.632812 -59.210938 37.46875 -58.132812 41.59375 -57.25 L 56.859375 -53.96875 C 65.367188 -52.125 71.726562 -49.09375 75.9375 -44.875 C 80.15625 -40.664062 82.265625 -35.1875 82.265625 -28.4375 C 82.265625 -23.875 81.34375 -19.75 79.5 -16.0625 C 77.65625 -12.375 75.019531 -9.234375 71.59375 -6.640625 C 68.175781 -4.054688 64.050781 -2.0625 59.21875 -0.65625 C 54.394531 0.75 48.957031 1.453125 42.90625 1.453125 Z M 42.90625 1.453125 "/></g></g></g><g fill="#01572e" fill-opacity="1"><g transform="translate(513.765459, 515.916358)"><g><path d="M 19.546875 0.65625 C 17.941406 0.65625 16.269531 0.546875 14.53125 0.328125 C 12.800781 0.109375 11.15625 -0.21875 9.59375 -0.65625 C 8.03125 -1.09375 6.628906 -1.613281 5.390625 -2.21875 C 4.316406 -2.738281 3.554688 -3.425781 3.109375 -4.28125 C 2.671875 -5.144531 2.507812 -6.054688 2.625 -7.015625 C 2.75 -7.972656 3.09375 -8.820312 3.65625 -9.5625 C 4.21875 -10.300781 4.957031 -10.800781 5.875 -11.0625 C 6.789062 -11.320312 7.832031 -11.191406 9 -10.671875 C 10.507812 -9.953125 12.222656 -9.390625 14.140625 -8.984375 C 16.066406 -8.585938 17.867188 -8.390625 19.546875 -8.390625 C 22.179688 -8.390625 24.023438 -8.738281 25.078125 -9.4375 C 26.140625 -10.132812 26.671875 -11.003906 26.671875 -12.046875 C 26.671875 -12.960938 26.300781 -13.703125 25.5625 -14.265625 C 24.820312 -14.828125 23.515625 -15.304688 21.640625 -15.703125 L 14.625 -17.203125 C 10.789062 -18.003906 7.929688 -19.40625 6.046875 -21.40625 C 4.171875 -23.40625 3.234375 -25.984375 3.234375 -29.140625 C 3.234375 -31.210938 3.660156 -33.097656 4.515625 -34.796875 C 5.378906 -36.492188 6.597656 -37.941406 8.171875 -39.140625 C 9.753906 -40.347656 11.632812 -41.28125 13.8125 -41.9375 C 16 -42.59375 18.429688 -42.921875 21.109375 -42.921875 C 23.179688 -42.921875 25.285156 -42.691406 27.421875 -42.234375 C 29.566406 -41.773438 31.414062 -41.085938 32.96875 -40.171875 C 33.894531 -39.691406 34.554688 -39.03125 34.953125 -38.1875 C 35.347656 -37.351562 35.503906 -36.484375 35.421875 -35.578125 C 35.347656 -34.679688 35.039062 -33.890625 34.5 -33.203125 C 33.957031 -32.523438 33.238281 -32.078125 32.34375 -31.859375 C 31.445312 -31.640625 30.378906 -31.789062 29.140625 -32.3125 C 27.984375 -32.832031 26.671875 -33.222656 25.203125 -33.484375 C 23.742188 -33.742188 22.335938 -33.875 20.984375 -33.875 C 19.503906 -33.875 18.242188 -33.703125 17.203125 -33.359375 C 16.160156 -33.023438 15.367188 -32.535156 14.828125 -31.890625 C 14.296875 -31.253906 14.03125 -30.515625 14.03125 -29.671875 C 14.03125 -28.835938 14.378906 -28.128906 15.078125 -27.546875 C 15.773438 -26.960938 17.0625 -26.472656 18.9375 -26.078125 L 25.90625 -24.578125 C 29.78125 -23.742188 32.675781 -22.363281 34.59375 -20.4375 C 36.507812 -18.519531 37.46875 -16.023438 37.46875 -12.953125 C 37.46875 -10.867188 37.046875 -8.988281 36.203125 -7.3125 C 35.367188 -5.632812 34.171875 -4.207031 32.609375 -3.03125 C 31.054688 -1.851562 29.179688 -0.941406 26.984375 -0.296875 C 24.785156 0.335938 22.304688 0.65625 19.546875 0.65625 Z M 19.546875 0.65625 "/></g></g></g><g fill="#01572e" fill-opacity="1"><g transform="translate(566.585136, 515.916358)"><g><path d="M 9.59375 0 C 7.71875 0 6.289062 -0.488281 5.3125 -1.46875 C 4.332031 -2.445312 3.84375 -3.859375 3.84375 -5.703125 L 3.84375 -36.578125 C 3.84375 -38.410156 4.332031 -39.816406 5.3125 -40.796875 C 6.289062 -41.773438 7.71875 -42.265625 9.59375 -42.265625 L 29.921875 -42.265625 C 31.359375 -42.265625 32.4375 -41.90625 33.15625 -41.1875 C 33.875 -40.46875 34.234375 -39.425781 34.234375 -38.0625 C 34.234375 -36.664062 33.875 -35.597656 33.15625 -34.859375 C 32.4375 -34.117188 31.359375 -33.75 29.921875 -33.75 L 14.390625 -33.75 L 14.390625 -25.71875 L 28.59375 -25.71875 C 30 -25.71875 31.070312 -25.359375 31.8125 -24.640625 C 32.550781 -23.921875 32.921875 -22.863281 32.921875 -21.46875 C 32.921875 -20.0625 32.550781 -19 31.8125 -18.28125 C 31.070312 -17.5625 30 -17.203125 28.59375 -17.203125 L 14.390625 -17.203125 L 14.390625 -8.515625 L 29.921875 -8.515625 C 31.359375 -8.515625 32.4375 -8.144531 33.15625 -7.40625 C 33.875 -6.664062 34.234375 -5.613281 34.234375 -4.25 C 34.234375 -2.851562 33.875 -1.796875 33.15625 -1.078125 C 32.4375 -0.359375 31.359375 0 29.921875 0 Z M 9.59375 0 "/></g></g></g><g fill="#01572e" fill-opacity="1"><g transform="translate(617.186548, 515.916358)"><g><path d="M 9.359375 0.546875 C 7.597656 0.546875 6.238281 0.0546875 5.28125 -0.921875 C 4.320312 -1.898438 3.84375 -3.269531 3.84375 -5.03125 L 3.84375 -36.6875 C 3.84375 -38.488281 4.332031 -39.867188 5.3125 -40.828125 C 6.289062 -41.785156 7.65625 -42.265625 9.40625 -42.265625 L 24.15625 -42.265625 C 28.957031 -42.265625 32.664062 -41.09375 35.28125 -38.75 C 37.894531 -36.414062 39.203125 -33.171875 39.203125 -29.015625 C 39.203125 -26.335938 38.613281 -24.007812 37.4375 -22.03125 C 36.257812 -20.050781 34.5625 -18.53125 32.34375 -17.46875 C 30.125 -16.414062 27.394531 -15.890625 24.15625 -15.890625 L 24.640625 -16.96875 L 27.515625 -16.96875 C 29.234375 -16.96875 30.75 -16.554688 32.0625 -15.734375 C 33.382812 -14.921875 34.488281 -13.671875 35.375 -11.984375 L 38.375 -6.59375 C 39.007812 -5.4375 39.304688 -4.304688 39.265625 -3.203125 C 39.222656 -2.109375 38.789062 -1.207031 37.96875 -0.5 C 37.15625 0.195312 35.96875 0.546875 34.40625 0.546875 C 32.851562 0.546875 31.585938 0.226562 30.609375 -0.40625 C 29.628906 -1.050781 28.757812 -2.054688 28 -3.421875 L 22.546875 -13.421875 C 22.066406 -14.304688 21.457031 -14.914062 20.71875 -15.25 C 19.976562 -15.59375 19.128906 -15.765625 18.171875 -15.765625 L 14.875 -15.765625 L 14.875 -5.03125 C 14.875 -3.269531 14.410156 -1.898438 13.484375 -0.921875 C 12.566406 0.0546875 11.191406 0.546875 9.359375 0.546875 Z M 14.875 -23.5625 L 22.1875 -23.5625 C 24.300781 -23.5625 25.914062 -23.976562 27.03125 -24.8125 C 28.15625 -25.65625 28.71875 -26.957031 28.71875 -28.71875 C 28.71875 -30.394531 28.15625 -31.660156 27.03125 -32.515625 C 25.914062 -33.378906 24.300781 -33.8125 22.1875 -33.8125 L 14.875 -33.8125 Z M 14.875 -23.5625 "/></g></g></g><g fill="#01572e" fill-opacity="1"><g transform="translate(673.303645, 515.916358)"><g><path d="M 22.296875 0.546875 C 20.785156 0.546875 19.554688 0.226562 18.609375 -0.40625 C 17.671875 -1.050781 16.882812 -2.078125 16.25 -3.484375 L 1.734375 -35.5 C 1.097656 -36.894531 0.898438 -38.148438 1.140625 -39.265625 C 1.378906 -40.390625 1.9375 -41.257812 2.8125 -41.875 C 3.695312 -42.5 4.796875 -42.8125 6.109375 -42.8125 C 7.753906 -42.8125 8.984375 -42.445312 9.796875 -41.71875 C 10.617188 -41 11.332031 -39.941406 11.9375 -38.546875 L 24.15625 -10.25 L 20.796875 -10.25 L 33.03125 -38.609375 C 33.632812 -40.003906 34.351562 -41.050781 35.1875 -41.75 C 36.03125 -42.457031 37.210938 -42.8125 38.734375 -42.8125 C 39.972656 -42.8125 41.007812 -42.5 41.84375 -41.875 C 42.6875 -41.257812 43.21875 -40.390625 43.4375 -39.265625 C 43.65625 -38.148438 43.445312 -36.894531 42.8125 -35.5 L 28.234375 -3.484375 C 27.640625 -2.078125 26.878906 -1.050781 25.953125 -0.40625 C 25.035156 0.226562 23.816406 0.546875 22.296875 0.546875 Z M 22.296875 0.546875 "/></g></g></g><g fill="#01572e" fill-opacity="1"><g transform="translate(731.579064, 515.916358)"><g><path d="M 9.359375 0.546875 C 7.597656 0.546875 6.238281 0.0546875 5.28125 -0.921875 C 4.320312 -1.898438 3.84375 -3.289062 3.84375 -5.09375 L 3.84375 -37.171875 C 3.84375 -39.003906 4.320312 -40.398438 5.28125 -41.359375 C 6.238281 -42.328125 7.597656 -42.8125 9.359375 -42.8125 C 11.148438 -42.8125 12.515625 -42.328125 13.453125 -41.359375 C 14.398438 -40.398438 14.875 -39.003906 14.875 -37.171875 L 14.875 -5.09375 C 14.875 -3.289062 14.410156 -1.898438 13.484375 -0.921875 C 12.566406 0.0546875 11.191406 0.546875 9.359375 0.546875 Z M 9.359375 0.546875 "/></g></g></g><g fill="#01572e" fill-opacity="1"><g transform="translate(764.07463, 515.916358)"><g><path d="M 25.1875 0.65625 C 20.507812 0.65625 16.488281 -0.238281 13.125 -2.03125 C 9.769531 -3.832031 7.203125 -6.367188 5.421875 -9.640625 C 3.648438 -12.921875 2.765625 -16.757812 2.765625 -21.15625 C 2.765625 -24.4375 3.269531 -27.414062 4.28125 -30.09375 C 5.300781 -32.769531 6.78125 -35.066406 8.71875 -36.984375 C 10.65625 -38.910156 13.015625 -40.378906 15.796875 -41.390625 C 18.578125 -42.410156 21.707031 -42.921875 25.1875 -42.921875 C 27.019531 -42.921875 28.925781 -42.710938 30.90625 -42.296875 C 32.882812 -41.878906 34.632812 -41.25 36.15625 -40.40625 C 37.269531 -39.8125 38.046875 -39.050781 38.484375 -38.125 C 38.929688 -37.207031 39.082031 -36.269531 38.9375 -35.3125 C 38.800781 -34.351562 38.453125 -33.492188 37.890625 -32.734375 C 37.328125 -31.972656 36.601562 -31.460938 35.71875 -31.203125 C 34.84375 -30.941406 33.890625 -31.070312 32.859375 -31.59375 C 31.660156 -32.15625 30.46875 -32.582031 29.28125 -32.875 C 28.101562 -33.175781 26.875 -33.328125 25.59375 -33.328125 C 23.125 -33.328125 21.054688 -32.859375 19.390625 -31.921875 C 17.734375 -30.984375 16.484375 -29.613281 15.640625 -27.8125 C 14.804688 -26.019531 14.390625 -23.800781 14.390625 -21.15625 C 14.390625 -18.519531 14.804688 -16.289062 15.640625 -14.46875 C 16.484375 -12.65625 17.734375 -11.28125 19.390625 -10.34375 C 21.054688 -9.40625 23.125 -8.9375 25.59375 -8.9375 C 26.632812 -8.9375 27.753906 -9.066406 28.953125 -9.328125 C 30.148438 -9.585938 31.332031 -9.992188 32.5 -10.546875 C 33.695312 -11.066406 34.765625 -11.207031 35.703125 -10.96875 C 36.640625 -10.726562 37.394531 -10.25 37.96875 -9.53125 C 38.550781 -8.8125 38.921875 -7.984375 39.078125 -7.046875 C 39.242188 -6.109375 39.113281 -5.175781 38.6875 -4.25 C 38.269531 -3.332031 37.546875 -2.59375 36.515625 -2.03125 C 35.109375 -1.195312 33.375 -0.539062 31.3125 -0.0625 C 29.257812 0.414062 27.21875 0.65625 25.1875 0.65625 Z M 25.1875 0.65625 "/></g></g></g><g fill="#01572e" fill-opacity="1"><g transform="translate(819.112584, 515.916358)"><g><path d="M 9.59375 0 C 7.71875 0 6.289062 -0.488281 5.3125 -1.46875 C 4.332031 -2.445312 3.84375 -3.859375 3.84375 -5.703125 L 3.84375 -36.578125 C 3.84375 -38.410156 4.332031 -39.816406 5.3125 -40.796875 C 6.289062 -41.773438 7.71875 -42.265625 9.59375 -42.265625 L 29.921875 -42.265625 C 31.359375 -42.265625 32.4375 -41.90625 33.15625 -41.1875 C 33.875 -40.46875 34.234375 -39.425781 34.234375 -38.0625 C 34.234375 -36.664062 33.875 -35.597656 33.15625 -34.859375 C 32.4375 -34.117188 31.359375 -33.75 29.921875 -33.75 L 14.390625 -33.75 L 14.390625 -25.71875 L 28.59375 -25.71875 C 30 -25.71875 31.070312 -25.359375 31.8125 -24.640625 C 32.550781 -23.921875 32.921875 -22.863281 32.921875 -21.46875 C 32.921875 -20.0625 32.550781 -19 31.8125 -18.28125 C 31.070312 -17.5625 30 -17.203125 28.59375 -17.203125 L 14.390625 -17.203125 L 14.390625 -8.515625 L 29.921875 -8.515625 C 31.359375 -8.515625 32.4375 -8.144531 33.15625 -7.40625 C 33.875 -6.664062 34.234375 -5.613281 34.234375 -4.25 C 34.234375 -2.851562 33.875 -1.796875 33.15625 -1.078125 C 32.4375 -0.359375 31.359375 0 29.921875 0 Z M 9.59375 0 "/></g></g></g><g fill="#01572e" fill-opacity="1"><g transform="translate(869.713984, 515.916358)"><g><path d="M 19.546875 0.65625 C 17.941406 0.65625 16.269531 0.546875 14.53125 0.328125 C 12.800781 0.109375 11.15625 -0.21875 9.59375 -0.65625 C 8.03125 -1.09375 6.628906 -1.613281 5.390625 -2.21875 C 4.316406 -2.738281 3.554688 -3.425781 3.109375 -4.28125 C 2.671875 -5.144531 2.507812 -6.054688 2.625 -7.015625 C 2.75 -7.972656 3.09375 -8.820312 3.65625 -9.5625 C 4.21875 -10.300781 4.957031 -10.800781 5.875 -11.0625 C 6.789062 -11.320312 7.832031 -11.191406 9 -10.671875 C 10.507812 -9.953125 12.222656 -9.390625 14.140625 -8.984375 C 16.066406 -8.585938 17.867188 -8.390625 19.546875 -8.390625 C 22.179688 -8.390625 24.023438 -8.738281 25.078125 -9.4375 C 26.140625 -10.132812 26.671875 -11.003906 26.671875 -12.046875 C 26.671875 -12.960938 26.300781 -13.703125 25.5625 -14.265625 C 24.820312 -14.828125 23.515625 -15.304688 21.640625 -15.703125 L 14.625 -17.203125 C 10.789062 -18.003906 7.929688 -19.40625 6.046875 -21.40625 C 4.171875 -23.40625 3.234375 -25.984375 3.234375 -29.140625 C 3.234375 -31.210938 3.660156 -33.097656 4.515625 -34.796875 C 5.378906 -36.492188 6.597656 -37.941406 8.171875 -39.140625 C 9.753906 -40.347656 11.632812 -41.28125 13.8125 -41.9375 C 16 -42.59375 18.429688 -42.921875 21.109375 -42.921875 C 23.179688 -42.921875 25.285156 -42.691406 27.421875 -42.234375 C 29.566406 -41.773438 31.414062 -41.085938 32.96875 -40.171875 C 33.894531 -39.691406 34.554688 -39.03125 34.953125 -38.1875 C 35.347656 -37.351562 35.503906 -36.484375 35.421875 -35.578125 C 35.347656 -34.679688 35.039062 -33.890625 34.5 -33.203125 C 33.957031 -32.523438 33.238281 -32.078125 32.34375 -31.859375 C 31.445312 -31.640625 30.378906 -31.789062 29.140625 -32.3125 C 27.984375 -32.832031 26.671875 -33.222656 25.203125 -33.484375 C 23.742188 -33.742188 22.335938 -33.875 20.984375 -33.875 C 19.503906 -33.875 18.242188 -33.703125 17.203125 -33.359375 C 16.160156 -33.023438 15.367188 -32.535156 14.828125 -31.890625 C 14.296875 -31.253906 14.03125 -30.515625 14.03125 -29.671875 C 14.03125 -28.835938 14.378906 -28.128906 15.078125 -27.546875 C 15.773438 -26.960938 17.0625 -26.472656 18.9375 -26.078125 L 25.90625 -24.578125 C 29.78125 -23.742188 32.675781 -22.363281 34.59375 -20.4375 C 36.507812 -18.519531 37.46875 -16.023438 37.46875 -12.953125 C 37.46875 -10.867188 37.046875 -8.988281 36.203125 -7.3125 C 35.367188 -5.632812 34.171875 -4.207031 32.609375 -3.03125 C 31.054688 -1.851562 29.179688 -0.941406 26.984375 -0.296875 C 24.785156 0.335938 22.304688 0.65625 19.546875 0.65625 Z M 19.546875 0.65625 "/></g></g></g><g fill="#01572e" fill-opacity="1"><g transform="translate(922.533661, 515.916358)"><g/></g></g><g fill="#01572e" fill-opacity="1"><g transform="translate(953.470427, 515.916358)"><g><path d="M 9.40625 0 C 7.65625 0 6.289062 -0.488281 5.3125 -1.46875 C 4.332031 -2.445312 3.84375 -3.816406 3.84375 -5.578125 L 3.84375 -36.75 C 3.84375 -38.550781 4.320312 -39.929688 5.28125 -40.890625 C 6.238281 -41.847656 7.597656 -42.328125 9.359375 -42.328125 C 11.148438 -42.328125 12.515625 -41.847656 13.453125 -40.890625 C 14.398438 -39.929688 14.875 -38.550781 14.875 -36.75 L 14.875 -9.171875 L 29.5 -9.171875 C 31.019531 -9.171875 32.1875 -8.78125 33 -8 C 33.820312 -7.21875 34.234375 -6.085938 34.234375 -4.609375 C 34.234375 -3.128906 33.820312 -1.988281 33 -1.1875 C 32.1875 -0.394531 31.019531 0 29.5 0 Z M 9.40625 0 "/></g></g></g><g fill="#01572e" fill-opacity="1"><g transform="translate(1002.333218, 515.916358)"><g><path d="M 19.3125 0.546875 C 17.550781 0.546875 16.191406 0.0546875 15.234375 -0.921875 C 14.273438 -1.898438 13.796875 -3.269531 13.796875 -5.03125 L 13.796875 -33.28125 L 4.375 -33.28125 C 2.894531 -33.28125 1.765625 -33.664062 0.984375 -34.4375 C 0.203125 -35.21875 -0.1875 -36.328125 -0.1875 -37.765625 C -0.1875 -39.242188 0.203125 -40.363281 0.984375 -41.125 C 1.765625 -41.882812 2.894531 -42.265625 4.375 -42.265625 L 34.234375 -42.265625 C 35.710938 -42.265625 36.84375 -41.882812 37.625 -41.125 C 38.40625 -40.363281 38.796875 -39.242188 38.796875 -37.765625 C 38.796875 -36.328125 38.40625 -35.21875 37.625 -34.4375 C 36.84375 -33.664062 35.710938 -33.28125 34.234375 -33.28125 L 24.828125 -33.28125 L 24.828125 -5.03125 C 24.828125 -3.269531 24.363281 -1.898438 23.4375 -0.921875 C 22.519531 0.0546875 21.144531 0.546875 19.3125 0.546875 Z M 19.3125 0.546875 "/></g></g></g><g fill="#01572e" fill-opacity="1"><g transform="translate(1054.73324, 515.916358)"><g><path d="M 9.59375 0 C 7.71875 0 6.289062 -0.488281 5.3125 -1.46875 C 4.332031 -2.445312 3.84375 -3.859375 3.84375 -5.703125 L 3.84375 -36.578125 C 3.84375 -38.410156 4.332031 -39.816406 5.3125 -40.796875 C 6.289062 -41.773438 7.71875 -42.265625 9.59375 -42.265625 L 21.34375 -42.265625 C 28.695312 -42.265625 34.378906 -40.425781 38.390625 -36.75 C 42.410156 -33.070312 44.421875 -27.875 44.421875 -21.15625 C 44.421875 -17.800781 43.898438 -14.816406 42.859375 -12.203125 C 41.828125 -9.585938 40.332031 -7.367188 38.375 -5.546875 C 36.414062 -3.722656 34.003906 -2.34375 31.140625 -1.40625 C 28.285156 -0.46875 25.019531 0 21.34375 0 Z M 14.875 -8.9375 L 20.625 -8.9375 C 22.738281 -8.9375 24.566406 -9.191406 26.109375 -9.703125 C 27.648438 -10.222656 28.925781 -10.984375 29.9375 -11.984375 C 30.957031 -12.984375 31.71875 -14.242188 32.21875 -15.765625 C 32.71875 -17.285156 32.96875 -19.082031 32.96875 -21.15625 C 32.96875 -25.320312 31.945312 -28.390625 29.90625 -30.359375 C 27.875 -32.335938 24.78125 -33.328125 20.625 -33.328125 L 14.875 -33.328125 Z M 14.875 -8.9375 "/></g></g></g></svg>